<?xml version="1.0" encoding="UTF-8"?>
<svg version="1.1" xmlns="http://www.w3.org/2000/svg" width="500" height="500">
<path d="M0 0 C7.39729606 5.44709983 12.01363038 15.61510638 14.96875 24.078125 C16.10989145 26.85166162 16.62699206 27.67200675 19.37890625 28.9609375 C21.14313572 29.45460996 22.92508612 29.8889078 24.71875 30.26171875 C27.09375 30.890625 27.09375 30.890625 29.53125 33.265625 C31.96810838 35.20032285 31.96810838 35.20032285 34.73046875 34.51171875 C37.56764305 33.74401276 40.32404922 32.87245392 43.09375 31.890625 C49.4137643 29.78395357 58.43487355 29.64230245 64.75 31.796875 C70.57031131 35.28906179 75.03577163 40.38271971 77.09375 46.890625 C78.43002077 61.9469782 75.85010938 73.96115541 66.09375 85.890625 C65.57538574 86.26960938 65.05702148 86.64859375 64.52294922 87.0390625 C62.29915729 89.92003927 62.61187303 93.07315539 62.54296875 96.57421875 C62.23420939 104.41879103 61.38201781 112.05162594 60.22402954 119.81588745 C59.65190958 123.66370051 59.10788296 127.51550848 58.5625 131.3671875 C58.44518021 132.19373337 58.32786041 133.02027924 58.20698547 133.87187195 C56.80791371 143.80278362 55.54522902 153.75088796 54.29818726 163.70187378 C54.04137454 165.75031661 53.78330308 167.79860212 53.52383423 169.84671021 C52.10696908 181.04099649 50.82420634 192.23239606 49.78860474 203.46862793 C48.03369845 222.49576875 45.62504924 241.46266211 42.59375 260.328125 C42.40449951 261.54685303 42.21524902 262.76558105 42.02026367 264.02124023 C40.87325805 270.89126094 39.56604655 277.76308902 36.09375 283.890625 C28.41371487 289.01064842 17.78422238 286.7383184 9.21875 285.078125 C7.24252576 284.7155991 5.26595812 284.35494047 3.2890625 283.99609375 C2.28141846 283.81296631 1.27377441 283.62983887 0.2355957 283.44116211 C-10.62872252 281.53743707 -21.46889483 280.43585313 -32.45654297 279.62966919 C-44.37099142 278.74854467 -56.22771561 277.75240429 -68.06054688 276.07739258 C-73.64442971 275.2953126 -79.23026904 274.62699598 -84.83984375 274.05859375 C-103.13717272 272.19806825 -121.33304997 269.93920463 -139.53125 267.265625 C-140.56885468 267.11355591 -141.60645935 266.96148682 -142.67550659 266.80480957 C-145.6617952 266.36547946 -148.64746086 265.92221202 -151.6328125 265.4765625 C-152.50854416 265.34645782 -153.38427582 265.21635315 -154.2865448 265.08230591 C-158.77687715 264.40391095 -163.25983103 263.68384375 -167.73583984 262.91650391 C-168.60606781 262.76839264 -169.47629578 262.62028137 -170.37289429 262.46768188 C-174.28838882 261.57579644 -177.18492491 260.53907649 -180.1875 257.83984375 C-182.5904329 253.71662933 -182.50433518 250.40041114 -182.40625 245.703125 C-182.39634033 244.76476807 -182.38643066 243.82641113 -182.3762207 242.85961914 C-181.90471371 223.66821633 -178.80977773 204.40508782 -175.97900391 185.44799805 C-174.98092506 178.69513937 -174.21628256 171.9252684 -173.46875 165.140625 C-172.5403122 156.78346554 -171.42169673 148.49568064 -170.03125 140.203125 C-168.2674411 129.64824167 -166.8626789 119.06897266 -165.53125 108.453125 C-163.81085174 94.81830915 -162.05710195 81.18859591 -160.16864014 67.57589722 C-159.91199388 65.71408974 -159.65937751 63.85172195 -159.41094971 61.98880005 C-159.06347116 59.38933793 -158.70157148 56.79227461 -158.3359375 54.1953125 C-158.2360553 53.42625076 -158.1361731 52.65718903 -158.03326416 51.86482239 C-157.41050163 47.57471738 -156.4955049 44.39314905 -153.90625 40.890625 C-138.74935939 30.10152652 -96.37010443 43.06289575 -79.41650391 45.40869141 C-76.01212807 45.87608867 -72.60620206 46.32938947 -69.19921875 46.77734375 C-68.17304443 46.91333984 -67.14687012 47.04933594 -66.08959961 47.18945312 C-64.18576362 47.44171337 -62.28164324 47.69184001 -60.37719727 47.93945312 C-59.54631592 48.05095703 -58.71543457 48.16246094 -57.859375 48.27734375 C-56.77897949 48.41982544 -56.77897949 48.41982544 -55.67675781 48.56518555 C-53.90625 48.890625 -53.90625 48.890625 -51.90625 49.890625 C-51.92945313 48.92382812 -51.95265625 47.95703125 -51.9765625 46.9609375 C-52.21603084 29.68500723 -48.54412385 15.7346674 -36.24609375 2.953125 C-25.02174484 -6.9407919 -12.73259495 -7.4099528 0 0 Z M-28.90625 8.890625 C-28.90625 9.550625 -28.90625 10.210625 -28.90625 10.890625 C-29.56625 10.890625 -30.22625 10.890625 -30.90625 10.890625 C-39.4355753 19.39493761 -43.34963763 32.12654725 -43.90625 43.890625 C-43.43676929 48.69754695 -42.14590879 52.62957926 -39.90625 56.890625 C-39.24625 56.890625 -38.58625 56.890625 -37.90625 56.890625 C-37.90625 57.550625 -37.90625 58.210625 -37.90625 58.890625 C-29.74507751 63.05803223 -22.52990034 62.66773274 -13.90625 59.890625 C-11.40583728 58.68742057 -11.40583728 58.68742057 -9.90625 56.890625 C-9.90625 55.570625 -9.90625 54.250625 -9.90625 52.890625 C-11.59490105 51.49146754 -11.59490105 51.49146754 -13.78125 50.453125 C-16.4444173 48.90236033 -17.75172039 48.12551001 -19.46875 45.515625 C-20.35281228 40.21125131 -19.15718933 34.73014457 -16.90625 29.890625 C-12.81218662 27.16124942 -7.66458652 27.3212514 -2.90625 27.890625 C-0.46941422 28.72900706 1.75544688 29.79305415 4.09375 30.890625 C4.75375 30.560625 5.41375 30.230625 6.09375 29.890625 C3.67516545 21.10734428 0.00145286 12.01994578 -7.90625 6.890625 C-8.89625 6.230625 -9.88625 5.570625 -10.90625 4.890625 C-18.03185624 3.91482542 -23.06715922 4.73838266 -28.90625 8.890625 Z M-12.28125 36.140625 C-14.12239852 38.67351138 -14.12239852 38.67351138 -13.78125 41.078125 C-12.93850102 43.07795541 -12.93850102 43.07795541 -10.90625 44.890625 C-9.91625 44.890625 -8.92625 44.890625 -7.90625 44.890625 C-4.79721404 40.49406858 -4.79721404 40.49406858 -4.15625 35.453125 C-4.40375 34.9375 -4.65125 34.421875 -4.90625 33.890625 C-8.55531097 33.38381098 -9.54069448 33.54430925 -12.28125 36.140625 Z M1.66015625 41.609375 C-2.24566589 46.83189073 -3.58470455 51.28197509 -2.90625 57.890625 C-0.77795195 63.92080281 2.86490398 66.63043279 7.96875 70.203125 C13.13233828 71.87369768 17.53687849 71.41850814 22.34375 69.140625 C26.91881767 66.59294026 30.05742843 63.77434537 32.09375 58.890625 C32.76750822 53.70425359 32.75300549 49.25984794 30.46875 44.515625 C25.05573707 38.42012965 25.05573707 38.42012965 17.703125 35.65234375 C10.71415467 35.47093605 6.38155341 35.94884435 1.66015625 41.609375 Z M38.09375 44.890625 C38.75375 47.200625 39.41375 49.510625 40.09375 51.890625 C41.74375 52.220625 43.39375 52.550625 45.09375 52.890625 C45.09375 53.550625 45.09375 54.210625 45.09375 54.890625 C45.75375 54.890625 46.41375 54.890625 47.09375 54.890625 C48.68299255 64.59882403 48.68299255 64.59882403 46.46875 69.453125 C43.85506322 72.13559301 42.75780873 73.17374394 39.09375 73.890625 C36.50251479 73.69545183 33.96521603 73.39006644 31.3984375 72.984375 C28.81318831 72.65295614 28.81318831 72.65295614 26.09375 74.890625 C26.64528215 78.62787272 28.05524761 80.1142241 30.90625 82.515625 C31.59332031 83.10601562 32.28039062 83.69640625 32.98828125 84.3046875 C36.93207614 87.2753382 39.90398558 88.36379895 44.94921875 88.1953125 C51.79700616 87.22240281 56.3041083 83.25298773 60.55859375 78.0390625 C66.914076 69.14462169 69.22737444 59.7706547 68.09375 48.890625 C66.93411025 45.6687393 65.28423545 43.66714619 62.375 41.76953125 C54.26665303 38.6455962 45.18373843 40.3530324 38.09375 44.890625 Z M39.09375 58.890625 C36.63096199 61.35341301 36.09603745 63.59739482 35.09375 66.890625 C36.08375 67.220625 37.07375 67.550625 38.09375 67.890625 C40.28413423 66.51894262 40.28413423 66.51894262 42.09375 64.890625 C41.74930119 62.41795735 41.74930119 62.41795735 41.09375 59.890625 C40.43375 59.560625 39.77375 59.230625 39.09375 58.890625 Z M-79.90625 134.890625 C-81.7189869 142.26713012 -82.66376 149.59331137 -83.46875 157.140625 C-83.71815476 159.43770679 -83.96938728 161.73459105 -84.22265625 164.03125 C-84.33037354 165.03704102 -84.43809082 166.04283203 -84.54907227 167.07910156 C-84.88445174 169.71904002 -85.37220583 172.28509434 -85.90625 174.890625 C-86.06888734 177.58849149 -85.99657235 180.18095446 -85.90625 182.890625 C-84.17039198 184.62648302 -81.72972169 184.32945867 -79.359375 184.57421875 C-78.20308594 184.69732422 -77.04679687 184.82042969 -75.85546875 184.94726562 C-74.63472656 185.07294922 -73.41398437 185.19863281 -72.15625 185.328125 C-63.9520468 186.17916474 -55.8094516 187.14918985 -47.67016602 188.49584961 C-44.35232569 188.96974306 -41.24833584 189.04607085 -37.90625 188.890625 C-35.79549061 185.3467362 -35.35212842 182.02117439 -34.8359375 177.95703125 C-34.70700607 176.94635841 -34.70700607 176.94635841 -34.57546997 175.91526794 C-34.39545438 174.48766921 -34.21917641 173.05959485 -34.04638672 171.63110352 C-33.78575081 169.49009713 -33.50903653 167.35162819 -33.23046875 165.21289062 C-32.16128184 156.73355217 -31.65665271 148.45366096 -31.90625 139.890625 C-32.61531494 139.81021973 -33.32437988 139.72981445 -34.05493164 139.64697266 C-37.3597099 139.27135051 -40.66426463 138.89381527 -43.96875 138.515625 C-45.15637939 138.37987061 -46.34400879 138.24411621 -47.56762695 138.10424805 C-55.01416476 137.2457156 -62.43934091 136.31509185 -69.85546875 135.22265625 C-73.22578155 134.85584884 -76.51866963 134.8352306 -79.90625 134.890625 Z " fill="#FEFDFE" transform="translate(310.90625,70.109375)"/>
<path d="M0 0 C7.39729606 5.44709983 12.01363038 15.61510638 14.96875 24.078125 C16.10989145 26.85166162 16.62699206 27.67200675 19.37890625 28.9609375 C21.14313572 29.45460996 22.92508612 29.8889078 24.71875 30.26171875 C27.09375 30.890625 27.09375 30.890625 29.53125 33.265625 C31.96810838 35.20032285 31.96810838 35.20032285 34.73046875 34.51171875 C37.56764305 33.74401276 40.32404922 32.87245392 43.09375 31.890625 C49.4137643 29.78395357 58.43487355 29.64230245 64.75 31.796875 C70.57031131 35.28906179 75.03577163 40.38271971 77.09375 46.890625 C78.43002077 61.9469782 75.85010938 73.96115541 66.09375 85.890625 C61.1339378 91.70152924 52.75962685 95.27646665 45.33984375 96.51953125 C37.91855117 96.76770824 32.67714837 95.87311951 27.09375 90.890625 C26.45695312 90.33632812 25.82015625 89.78203125 25.1640625 89.2109375 C22.16457705 86.41058801 20.31177943 84.46840299 18.84375 80.578125 C17.38076376 77.68533048 17.38076376 77.68533048 14.68359375 77.21484375 C12.73099504 76.91262457 10.77499017 76.63172218 8.81640625 76.37109375 C3.77326754 75.48112809 0.87021084 72.72254733 -2.53125 69.078125 C-4.62130697 66.64133573 -4.62130697 66.64133573 -6.96875 66.953125 C-8.88445551 67.8344339 -8.88445551 67.8344339 -10.48828125 68.89453125 C-17.95971517 71.97242406 -29.22035201 72.07894225 -36.71875 69.265625 C-40.5286252 67.37055754 -43.27166822 65.22776192 -45.90625 61.890625 C-45.90625 61.230625 -45.90625 60.570625 -45.90625 59.890625 C-46.89625 59.560625 -47.88625 59.230625 -48.90625 58.890625 C-53.5955346 48.77875204 -53.34877081 35.35650299 -49.90625 24.890625 C-45.08013653 13.03099957 -38.64511102 2.71689084 -26.94921875 -3.26953125 C-17.41025619 -7.19090209 -8.66509676 -5.04280221 0 0 Z M-28.90625 8.890625 C-28.90625 9.550625 -28.90625 10.210625 -28.90625 10.890625 C-29.56625 10.890625 -30.22625 10.890625 -30.90625 10.890625 C-39.4355753 19.39493761 -43.34963763 32.12654725 -43.90625 43.890625 C-43.43676929 48.69754695 -42.14590879 52.62957926 -39.90625 56.890625 C-39.24625 56.890625 -38.58625 56.890625 -37.90625 56.890625 C-37.90625 57.550625 -37.90625 58.210625 -37.90625 58.890625 C-29.74507751 63.05803223 -22.52990034 62.66773274 -13.90625 59.890625 C-11.40583728 58.68742057 -11.40583728 58.68742057 -9.90625 56.890625 C-9.90625 55.570625 -9.90625 54.250625 -9.90625 52.890625 C-11.59490105 51.49146754 -11.59490105 51.49146754 -13.78125 50.453125 C-16.4444173 48.90236033 -17.75172039 48.12551001 -19.46875 45.515625 C-20.35281228 40.21125131 -19.15718933 34.73014457 -16.90625 29.890625 C-12.81218662 27.16124942 -7.66458652 27.3212514 -2.90625 27.890625 C-0.46941422 28.72900706 1.75544688 29.79305415 4.09375 30.890625 C4.75375 30.560625 5.41375 30.230625 6.09375 29.890625 C3.67516545 21.10734428 0.00145286 12.01994578 -7.90625 6.890625 C-8.89625 6.230625 -9.88625 5.570625 -10.90625 4.890625 C-18.03185624 3.91482542 -23.06715922 4.73838266 -28.90625 8.890625 Z M-12.28125 36.140625 C-14.12239852 38.67351138 -14.12239852 38.67351138 -13.78125 41.078125 C-12.93850102 43.07795541 -12.93850102 43.07795541 -10.90625 44.890625 C-9.91625 44.890625 -8.92625 44.890625 -7.90625 44.890625 C-4.79721404 40.49406858 -4.79721404 40.49406858 -4.15625 35.453125 C-4.40375 34.9375 -4.65125 34.421875 -4.90625 33.890625 C-8.55531097 33.38381098 -9.54069448 33.54430925 -12.28125 36.140625 Z M1.66015625 41.609375 C-2.24566589 46.83189073 -3.58470455 51.28197509 -2.90625 57.890625 C-0.77795195 63.92080281 2.86490398 66.63043279 7.96875 70.203125 C13.13233828 71.87369768 17.53687849 71.41850814 22.34375 69.140625 C26.91881767 66.59294026 30.05742843 63.77434537 32.09375 58.890625 C32.76750822 53.70425359 32.75300549 49.25984794 30.46875 44.515625 C25.05573707 38.42012965 25.05573707 38.42012965 17.703125 35.65234375 C10.71415467 35.47093605 6.38155341 35.94884435 1.66015625 41.609375 Z M38.09375 44.890625 C38.75375 47.200625 39.41375 49.510625 40.09375 51.890625 C41.74375 52.220625 43.39375 52.550625 45.09375 52.890625 C45.09375 53.550625 45.09375 54.210625 45.09375 54.890625 C45.75375 54.890625 46.41375 54.890625 47.09375 54.890625 C48.68299255 64.59882403 48.68299255 64.59882403 46.46875 69.453125 C43.85506322 72.13559301 42.75780873 73.17374394 39.09375 73.890625 C36.50251479 73.69545183 33.96521603 73.39006644 31.3984375 72.984375 C28.81318831 72.65295614 28.81318831 72.65295614 26.09375 74.890625 C26.64528215 78.62787272 28.05524761 80.1142241 30.90625 82.515625 C31.59332031 83.10601562 32.28039062 83.69640625 32.98828125 84.3046875 C36.93207614 87.2753382 39.90398558 88.36379895 44.94921875 88.1953125 C51.79700616 87.22240281 56.3041083 83.25298773 60.55859375 78.0390625 C66.914076 69.14462169 69.22737444 59.7706547 68.09375 48.890625 C66.93411025 45.6687393 65.28423545 43.66714619 62.375 41.76953125 C54.26665303 38.6455962 45.18373843 40.3530324 38.09375 44.890625 Z M39.09375 58.890625 C36.63096199 61.35341301 36.09603745 63.59739482 35.09375 66.890625 C36.08375 67.220625 37.07375 67.550625 38.09375 67.890625 C40.28413423 66.51894262 40.28413423 66.51894262 42.09375 64.890625 C41.74930119 62.41795735 41.74930119 62.41795735 41.09375 59.890625 C40.43375 59.560625 39.77375 59.230625 39.09375 58.890625 Z " fill="#E57AA4" transform="translate(310.90625,70.109375)"/>
<path d="M0 0 C0.66 0.33 1.32 0.66 2 1 C2.1875 3.3125 2.1875 3.3125 2 6 C1.53722656 6.40476562 1.07445312 6.80953125 0.59765625 7.2265625 C-4.62272397 13.02131218 -4.19858134 25.11774815 -3.84667969 32.55639648 C-3.61946136 36.04447653 -3.33426142 39.52045946 -3 43 C-1.68 43.33 -0.36 43.66 1 44 C1 40.61044634 0.5182308 37.40669508 0.0234375 34.05859375 C0.01570313 33.37925781 0.00796875 32.69992188 0 32 C0.66 31.34 1.32 30.68 2 30 C2.13277344 30.60328125 2.26554687 31.2065625 2.40234375 31.828125 C2.66724609 33.02695313 2.66724609 33.02695313 2.9375 34.25 C3.11152344 35.03890625 3.28554688 35.8278125 3.46484375 36.640625 C3.947556 38.76878703 4.46163178 40.88532842 5 43 C5.66 43 6.32 43 7 43 C7 43.66 7 44.32 7 45 C13.61809577 47.46254726 20.00439516 47.18935472 27 47 C26.67 47.99 26.34 48.98 26 50 C22.97271578 51.19730791 20.031554 51.07607809 16.8125 51 C15.20877332 50.962431 13.60348584 50.95326817 12 51 C11.67 51.33 11.34 51.66 11 52 C17.70278214 55.35139107 29.765013 53.01543677 37 52 C31.92630217 57.30432046 25.55866997 56.78194712 18.58203125 57.05859375 C11.58905922 57.13697432 6.02265391 55.13977056 0.875 50.375 C-1 48 -1 48 -1 46 C-1.99 45.67 -2.98 45.34 -4 45 C-8.73726824 34.78465614 -8.2928982 21.59022536 -5 11 C-3.47726527 7.25760492 -1.80111301 3.61597496 0 0 Z " fill="#E38AAD" transform="translate(266,84)"/>
<path d="M0 0 C0.99 0 1.98 0 3 0 C4.05587465 2.74527409 4.06743986 3.82297037 3 6.625 C1.61410217 11.30240518 2.34885311 15.22730798 3 20 C3.16942043 21.66638899 3.3362571 23.33304355 3.5 25 C3.7382496 27.38249603 3.92359624 28.84719248 5 31 C4.34 31.66 3.68 32.32 3 33 C-0.875 31.25 -0.875 31.25 -2 29 C-3.12189119 19.50358767 -3.46712087 10.34464275 -1 1 C-0.67 0.67 -0.34 0.34 0 0 Z " fill="#E674A0" transform="translate(264,96)"/>
<path d="M0 0 C1.65 0.33 3.3 0.66 5 1 C5 2.32 5 3.64 5 5 C7.31 5 9.62 5 12 5 C12 5.66 12 6.32 12 7 C12.66 7.66 13.32 8.32 14 9 C13.01 9 12.02 9 11 9 C10.67 9.66 10.34 10.32 10 11 C8.68 10.67 7.36 10.34 6 10 C6 9.34 6 8.68 6 8 C3.36 8 0.72 8 -2 8 C-2 4.79604584 -1.25664978 2.90600261 0 0 Z M-5 7 C-4.34 7 -3.68 7 -3 7 C-4.85714286 14.57142857 -4.85714286 14.57142857 -8 17 C-8.433125 16.525625 -8.86625 16.05125 -9.3125 15.5625 C-11.02309613 13.76313043 -11.02309613 13.76313043 -14 13 C-13.67 12.01 -13.34 11.02 -13 10 C-10.68970915 9.25740651 -8.354248 8.588562 -6 8 C-5.67 7.67 -5.34 7.34 -5 7 Z " fill="#E475A0" transform="translate(340,133)"/>
<path d="M0 0 C2 2 2 2 2.07519531 3.8125 C1.99366211 4.534375 1.91212891 5.25625 1.828125 6 C1.74167725 6.79970215 1.65522949 7.5994043 1.56616211 8.42333984 C1.46182861 9.2736377 1.35749512 10.12393555 1.25 11 C1.15146729 11.86705566 1.05293457 12.73411133 0.95141602 13.62744141 C0.35513238 18.67758908 -0.44117608 23.6157347 -1.55859375 28.578125 C-2.4851936 33.66212416 -2.69310925 38.84746577 -3 44 C-5 42 -5 42 -5.09106445 40.1784668 C-5.015896 39.44281494 -4.94072754 38.70716309 -4.86328125 37.94921875 C-4.78190918 37.11479248 -4.70053711 36.28036621 -4.61669922 35.4206543 C-4.51631348 34.51871338 -4.41592773 33.61677246 -4.3125 32.6875 C-4.21727051 31.76428955 -4.12204102 30.8410791 -4.02392578 29.88989258 C-2.95435591 19.88949879 -1.51091735 9.94183617 0 0 Z " fill="#FAE0E6" transform="translate(141,210)"/>
<path d="M0 0 C4.48587781 1.9370836 7.57691993 3.6586482 10 8 C9.25 11.3125 9.25 11.3125 8 14 C6.88625 12.8553125 6.88625 12.8553125 5.75 11.6875 C3.20909976 9.02766114 3.20909976 9.02766114 0.6875 7.5 C-1 6 -1 6 -1.3125 3.375 C-1 1 -1 1 0 0 Z " fill="#E477A2" transform="translate(334,102)"/>
<path d="M0 0 C0.66 0 1.32 0 2 0 C4.15305957 3.85756507 5.39253254 6.55129785 5 11 C3.35 11.66 1.7 12.32 0 13 C0 12.34 0 11.68 0 11 C-0.66 11 -1.32 11 -2 11 C-2 8.03 -2 5.06 -2 2 C-1.34 2 -0.68 2 0 2 C0 1.34 0 0.68 0 0 Z " fill="#E6749F" transform="translate(318,87)"/>
<path d="M0 0 C-0.61875 0.0825 -1.2375 0.165 -1.875 0.25 C-2.57625 0.4975 -3.2775 0.745 -4 1 C-4.268125 1.598125 -4.53625 2.19625 -4.8125 2.8125 C-6.70700766 6.30238253 -9.46532351 7.26366769 -13 9 C-13.99 9 -14.98 9 -16 9 C-16.66 10.32 -17.32 11.64 -18 13 C-18.99 13 -19.98 13 -21 13 C-16.4816019 7.10513625 -8.31681728 -3.19289307 0 0 Z " fill="#E78FB2" transform="translate(290,67)"/>
<path d="M0 0 C1.890625 1.10546875 1.890625 1.10546875 4.390625 3.10546875 C1.71161453 4.13585739 0.61276701 4.19154878 -2.109375 3.13671875 C-6.79627157 1.75575815 -11.12980018 1.89044097 -15.984375 1.98046875 C-16.91121094 1.98949219 -17.83804687 1.99851562 -18.79296875 2.0078125 C-21.06537577 2.03123938 -23.3372368 2.06404127 -25.609375 2.10546875 C-18.24194214 -1.70527238 -7.99462109 -2.740671 0 0 Z " fill="#E895B3" transform="translate(375.609375,101.89453125)"/>
<path d="M0 0 C4.37859255 0.50522222 6.81651224 3.17827222 10 6 C9.01 6.33 8.02 6.66 7 7 C6.01 8.485 6.01 8.485 5 10 C3.35 9.67 1.7 9.34 0 9 C-0.33 7.02 -0.66 5.04 -1 3 C-0.34 3 0.32 3 1 3 C0.67 2.01 0.34 1.02 0 0 Z " fill="#E67BA4" transform="translate(336,149)"/>
<path d="M0 0 C-1.26831693 0.81642254 -2.53975931 1.62799105 -3.8125 2.4375 C-4.87404297 3.11619141 -4.87404297 3.11619141 -5.95703125 3.80859375 C-9.95078545 6.13764735 -13.39278549 6.19277379 -17.9375 6.25 C-19.77634766 6.28867188 -19.77634766 6.28867188 -21.65234375 6.328125 C-25.16208435 5.98411309 -26.48848879 5.39191544 -29 3 C-27.12054688 3.01740234 -27.12054688 3.01740234 -25.203125 3.03515625 C-23.55208483 3.04453716 -21.90104304 3.05363704 -20.25 3.0625 C-19.425 3.07087891 -18.6 3.07925781 -17.75 3.08789062 C-16.55117188 3.09272461 -16.55117188 3.09272461 -15.328125 3.09765625 C-14.22839355 3.10551147 -14.22839355 3.10551147 -13.10644531 3.11352539 C-10.91944622 2.99565861 -9.07135937 2.71538093 -7 2 C-6.67 1.34 -6.34 0.68 -6 0 C-3 -1 -3 -1 0 0 Z " fill="#DA89A8" transform="translate(371,160)"/>
<path d="M0 0 C0.33 0 0.66 0 1 0 C1.33 2.31 1.66 4.62 2 7 C2.99 7 3.98 7 5 7 C5 7.66 5 8.32 5 9 C5.66 9 6.32 9 7 9 C7 8.34 7 7.68 7 7 C7.99 7.33 8.98 7.66 10 8 C10.1953125 14.0546875 10.1953125 14.0546875 10 16 C9.34 16.66 8.68 17.32 8 18 C5.875 17.625 5.875 17.625 4 17 C4.99 16.34 5.98 15.68 7 15 C7.72382467 12.94074861 7.72382467 12.94074861 8 11 C7.071875 10.731875 6.14375 10.46375 5.1875 10.1875 C0.47692308 8.43257919 0.47692308 8.43257919 -1 6 C-0.6875 2.8125 -0.6875 2.8125 0 0 Z " fill="#E786A9" transform="translate(293,112)"/>
<path d="M0 0 C2.60928098 1.10190842 4.64029572 2.39339283 7 4 C7 4.66 7 5.32 7 6 C4.525 5.505 4.525 5.505 2 5 C2 4.34 2 3.68 2 3 C-3.77807024 2.7641604 -8.51324804 3.13216954 -14 5 C-14 4.34 -14 3.68 -14 3 C-9.74653562 -0.56742174 -5.30403775 -0.85840475 0 0 Z " fill="#E895B8" transform="translate(308,97)"/>
<path d="M0 0 C2.64 0.33 5.28 0.66 8 1 C8 1.66 8 2.32 8 3 C8.99 3.33 9.98 3.66 11 4 C11 5.98 11 7.96 11 10 C10.2575 9.360625 9.515 8.72125 8.75 8.0625 C6.26434821 5.8892761 6.26434821 5.8892761 3.8125 5.5625 C3.214375 5.376875 2.61625 5.19125 2 5 C0.75 2.4375 0.75 2.4375 0 0 Z " fill="#E2749E" transform="translate(302,99)"/>
<path d="M0 0 C0.33 0 0.66 0 1 0 C0.4340092 11.06660956 -0.59883036 22.00830029 -2 33 C-2.33 33 -2.66 33 -3 33 C-3 26.4 -3 19.8 -3 13 C-2.34 13 -1.68 13 -1 13 C-1.01160156 12.22914063 -1.02320313 11.45828125 -1.03515625 10.6640625 C-1.04417969 9.66117188 -1.05320312 8.65828125 -1.0625 7.625 C-1.07410156 6.62726563 -1.08570313 5.62953125 -1.09765625 4.6015625 C-1 2 -1 2 0 0 Z " fill="#FCDCE5" transform="translate(363,238)"/>
<path d="M0 0 C1.08130697 3.35792454 0.92420653 5.94571296 0.44140625 9.421875 C0.30283203 10.44667969 0.16425781 11.47148437 0.02148438 12.52734375 C-0.12998047 13.59082031 -0.28144531 14.65429688 -0.4375 15.75 C-0.58509766 16.82894531 -0.73269531 17.90789062 -0.88476562 19.01953125 C-1.24979205 21.68069166 -1.62177419 24.34068894 -2 27 C-2.33 27 -2.66 27 -3 27 C-3.40757013 8.74991551 -3.40757013 8.74991551 -1 1 C-0.67 0.67 -0.34 0.34 0 0 Z " fill="#F9E1E9" transform="translate(227,226)"/>
<path d="M0 0 C2.46800047 1.15173355 4.04783565 2.04783565 6 4 C6.5775 3.649375 7.155 3.29875 7.75 2.9375 C10.35801776 1.85082593 11.39417629 2.06934867 14 3 C13.0925 3.53625 12.185 4.0725 11.25 4.625 C7.88382698 6.83728392 6.10380156 9.57158264 4 13 C3.67 13 3.34 13 3 13 C2.91773332 9.95613276 3.02391783 7.92824652 4 5 C3.01 4.67 2.02 4.34 1 4 C0.3125 1.9375 0.3125 1.9375 0 0 Z " fill="#EA8EB4" transform="translate(306,104)"/>
<path d="M0 0 C9.37758099 -0.18672175 18.77278027 0.20581839 28 2 C28 2.66 28 3.32 28 4 C18.55636393 3.45462284 9.34561968 2.46291615 0 1 C0 0.67 0 0.34 0 0 Z " fill="#F5D7DF" transform="translate(192,339)"/>
<path d="M0 0 C0.66 0 1.32 0 2 0 C1.45462284 9.44363607 0.46291615 18.65438032 -1 28 C-1.33 28 -1.66 28 -2 28 C-2.23889655 18.40432207 -1.78831859 9.46850826 0 0 Z " fill="#FCDEE7" transform="translate(368,193)"/>
<path d="M0 0 C0.33 0 0.66 0 1 0 C1.88779 6.5423294 2.04622695 12.47722706 1 19 C0.855625 19.94875 0.71125 20.8975 0.5625 21.875 C0 24 0 24 -2 27 C-2.10064005 20.71628693 -1.75941669 14.67190051 -1 8.4375 C-0.90460938 7.61958984 -0.80921875 6.80167969 -0.7109375 5.95898438 C-0.47855491 3.97211325 -0.23994484 1.98597206 0 0 Z " fill="#FAE1EB" transform="translate(131,285)"/>
<path d="M0 0 C0.33 0 0.66 0 1 0 C1.50740908 9.52801503 0.63080055 17.14992367 -3 26 C-3.33 26 -3.66 26 -4 26 C-3.8858134 24.06183265 -3.75826577 22.12444901 -3.625 20.1875 C-3.55539062 19.10855469 -3.48578125 18.02960938 -3.4140625 16.91796875 C-3 14 -3 14 -1 11 C-0.54227937 8.26127045 -0.54227937 8.26127045 -0.375 5.3125 C-0.30023438 4.31863281 -0.22546875 3.32476562 -0.1484375 2.30078125 C-0.09945313 1.54152344 -0.05046875 0.78226562 0 0 Z " fill="#E185AC" transform="translate(387,120)"/>
<path d="M0 0 C1.0725 0.45375 2.145 0.9075 3.25 1.375 C4.21292969 1.78105469 4.21292969 1.78105469 5.1953125 2.1953125 C7 3 7 3 9.125 4.25 C11.68495395 5.27398158 13.39601642 4.72332877 16 4 C13.47211993 6.79872437 11.79588866 8.45773019 8 9 C7.6596875 8.071875 7.6596875 8.071875 7.3125 7.125 C5.61583557 4.3780195 3.94748289 4.13364727 1 3 C0.67 2.01 0.34 1.02 0 0 Z " fill="#E893B4" transform="translate(334,100)"/>
<path d="M0 0 C2 2 2 2 2.04345703 3.97119141 C1.94919434 4.75671387 1.85493164 5.54223633 1.7578125 6.3515625 C1.66113281 7.20234375 1.56445312 8.053125 1.46484375 8.9296875 C1.29662109 10.26386719 1.29662109 10.26386719 1.125 11.625 C1.02058594 12.5221875 0.91617188 13.419375 0.80859375 14.34375 C0.54879548 16.5638443 0.27888059 18.78223534 0 21 C-0.33 21 -0.66 21 -1 21 C-2.23649903 13.5810058 -1.50382815 7.34514411 0 0 Z " fill="#FDE8F2" transform="translate(141,210)"/>
<path d="M0 0 C1.32 0.99 2.64 1.98 4 3 C3.34 4.98 2.68 6.96 2 9 C-0.64752004 6.42215154 -2.94432065 4.08351902 -5 1 C-2.525 1.495 -2.525 1.495 0 2 C0 1.34 0 0.68 0 0 Z " fill="#E684AC" transform="translate(340,107)"/>
<path d="M0 0 C0.33 0.99 0.66 1.98 1 3 C-2.19373157 6.19373157 -6.06829832 6.90188182 -10.4609375 7.125 C-12.64439214 7.125 -14.81849415 7.08904106 -17 7 C-17 6.67 -17 6.34 -17 6 C-16.27554687 5.90203125 -15.55109375 5.8040625 -14.8046875 5.703125 C-8.85607192 4.78307246 -4.6990896 3.81007265 0 0 Z " fill="#EA95B4" transform="translate(338,135)"/>
<path d="M0 0 C0 0.66 0 1.32 0 2 C1.32 2.33 2.64 2.66 4 3 C4.33 4.32 4.66 5.64 5 7 C4.27296875 6.47599609 4.27296875 6.47599609 3.53125 5.94140625 C-1.42572853 2.57638044 -5.01777843 1.32047616 -11 1 C-11 0.67 -11 0.34 -11 0 C-3.57142857 -1.28571429 -3.57142857 -1.28571429 0 0 Z " fill="#EA91B2" transform="translate(303,74)"/>
<path d="M0 0 C1.98 0.66 3.96 1.32 6 2 C5.34 2.66 4.68 3.32 4 4 C3.01 4 2.02 4 1 4 C1.33 4.99 1.66 5.98 2 7 C-0.475 6.01 -0.475 6.01 -3 5 C-2.34 4.67 -1.68 4.34 -1 4 C-0.34786708 1.97536745 -0.34786708 1.97536745 0 0 Z " fill="#E48AB0" transform="translate(315,138)"/>
<path d="M0 0 C1.26328125 0.01804687 2.5265625 0.03609375 3.828125 0.0546875 C4.79234375 0.07789062 5.7565625 0.10109375 6.75 0.125 C6.75 0.455 6.75 0.785 6.75 1.125 C5.85796875 1.16238281 4.9659375 1.19976562 4.046875 1.23828125 C2.87640625 1.30402344 1.7059375 1.36976562 0.5 1.4375 C-0.66015625 1.49550781 -1.8203125 1.55351563 -3.015625 1.61328125 C-6.4028011 2.14917505 -7.7018182 2.94501878 -10.25 5.125 C-10.91 5.125 -11.57 5.125 -12.25 5.125 C-11.25 2.125 -11.25 2.125 -9.640625 0.9453125 C-6.36014949 -0.18034086 -3.45833037 -0.06404316 0 0 Z " fill="#F7DBE1" transform="translate(168.25,108.875)"/>
<path d="M0 0 C-0.61875 0.0825 -1.2375 0.165 -1.875 0.25 C-4.17469437 0.78131326 -4.17469437 0.78131326 -4.9375 2.9375 C-6 5 -6 5 -8.625 6.25 C-9.40875 6.4975 -10.1925 6.745 -11 7 C-11 6.34 -11 5.68 -11 5 C-10.34 4.67 -9.68 4.34 -9 4 C-8.67 3.01 -8.34 2.02 -8 1 C-5.04059045 -1.0409721 -3.36242374 -1.20086562 0 0 Z " fill="#E385AA" transform="translate(290,67)"/>
<path d="M0 0 C0.66 0.33 1.32 0.66 2 1 C1.67 4.63 1.34 8.26 1 12 C-2 8 -2 8 -1.75 4.875 C-1 2 -1 2 0 0 Z " fill="#E58AAC" transform="translate(267,100)"/>
<path d="M0 0 C0.33 0 0.66 0 1 0 C0.5547115 5.27315333 -0.08373163 10.01770224 -2 15 C-3.08073852 11.75778445 -3.21676408 9.39597063 -3 6 C-2.34 5.34 -1.68 4.68 -1 4 C-0.3574765 1.93125966 -0.3574765 1.93125966 0 0 Z " fill="#F7E1E7" transform="translate(351,335)"/>
<path d="M0 0 C0 5.28 0 10.56 0 16 C-0.33 16 -0.66 16 -1 16 C-1 11.71 -1 7.42 -1 3 C-2.65 3.33 -4.3 3.66 -6 4 C-2.25 0 -2.25 0 0 0 Z " fill="#FBD7E6" transform="translate(373,159)"/>
<path d="M0 0 C0.33 0.66 0.66 1.32 1 2 C0.34 2 -0.32 2 -1 2 C-1 2.66 -1 3.32 -1 4 C-1.66 4 -2.32 4 -3 4 C-3 4.66 -3 5.32 -3 6 C-2.34 6.33 -1.68 6.66 -1 7 C-2.32 7.33 -3.64 7.66 -5 8 C-5.99 6.68 -6.98 5.36 -8 4 C-5.36 2.68 -2.72 1.36 0 0 Z " fill="#E885AD" transform="translate(366,153)"/>
<path d="M0 0 C7.57142857 4.14285714 7.57142857 4.14285714 10 7 C9.67 7.66 9.34 8.32 9 9 C5.125 7.25 5.125 7.25 4 5 C3.01 5 2.02 5 1 5 C0.67 3.35 0.34 1.7 0 0 Z " fill="#E78EBB" transform="translate(306,68)"/>
<path d="M0 0 C0.226875 0.61875 0.45375 1.2375 0.6875 1.875 C2.37929835 4.61410209 3.99244161 5.05024472 7 6 C7 6.66 7 7.32 7 8 C4.69 7.67 2.38 7.34 0 7 C0 4.69 0 2.38 0 0 Z " fill="#E387B0" transform="translate(349,117)"/>
<path d="M0 0 C1.98 0.99 3.96 1.98 6 3 C6.33 2.34 6.66 1.68 7 1 C7.33 1.99 7.66 2.98 8 4 C7.34 4.66 6.68 5.32 6 6 C3.375 5.625 3.375 5.625 1 5 C0.67 3.35 0.34 1.7 0 0 Z " fill="#E883B1" transform="translate(297,112)"/>
<path d="M0 0 C0.33 0 0.66 0 1 0 C1 1.65 1 3.3 1 5 C1.66 5.33 2.32 5.66 3 6 C1.87548273 8.9719385 0.77706209 11.33440687 -1 14 C-1.18451025 4.58997722 -1.18451025 4.58997722 0 0 Z " fill="#FDEBED" transform="translate(145,182)"/>
<path d="M0 0 C-1.375 1.5 -1.375 1.5 -3 3 C-3.66 3 -4.32 3 -5 3 C-5 2.34 -5 1.68 -5 1 C-7.64 1 -10.28 1 -13 1 C-13 0.67 -13 0.34 -13 0 C-11.58456585 -0.19658808 -10.16755969 -0.38187546 -8.75 -0.5625 C-7.96109375 -0.66691406 -7.1721875 -0.77132812 -6.359375 -0.87890625 C-3.99467126 -1.00027349 -2.2488963 -0.69633257 0 0 Z " fill="#E68EB3" transform="translate(293,132)"/>
<path d="M0 0 C0.33 0 0.66 0 1 0 C1.40178571 8.03571429 1.40178571 8.03571429 -2 12 C-1.85904936 10.3745692 -1.71207913 8.74965949 -1.5625 7.125 C-1.48128906 6.22007812 -1.40007812 5.31515625 -1.31640625 4.3828125 C-1 2 -1 2 0 0 Z " fill="#DA759B" transform="translate(380,126)"/>
<path d="M0 0 C2.8675003 2.69835 4.4497184 5.35683825 6 9 C5.67 9.66 5.34 10.32 5 11 C2 9 2 9 1.26953125 6.8359375 C1.11871094 6.02382812 0.96789062 5.21171875 0.8125 4.375 C0.65394531 3.55773437 0.49539063 2.74046875 0.33203125 1.8984375 C0.22246094 1.27195312 0.11289062 0.64546875 0 0 Z " fill="#E590AF" transform="translate(318,80)"/>
<path d="M0 0 C0.33 0 0.66 0 1 0 C1.66 3.63 2.32 7.26 3 11 C2.01 11 1.02 11 0 11 C-0.19491452 9.54263913 -0.38069358 8.08405407 -0.5625 6.625 C-0.66691406 5.81289062 -0.77132813 5.00078125 -0.87890625 4.1640625 C-1 2 -1 2 0 0 Z " fill="#E693B3" transform="translate(267,114)"/>
<path d="M0 0 C0.33 0 0.66 0 1 0 C1.33 2.31 1.66 4.62 2 7 C2.99 7 3.98 7 5 7 C5.33 7.99 5.66 8.98 6 10 C3.08482708 8.92598892 1.22189824 8.22189824 -1 6 C-0.625 2.875 -0.625 2.875 0 0 Z " fill="#EA8BB4" transform="translate(293,112)"/>
<path d="M0 0 C0.66 0 1.32 0 2 0 C1.42655063 2.86724686 1.1385485 3.8614515 -1 6 C-1.99 6 -2.98 6 -4 6 C-2.84826645 3.53199953 -1.95216435 1.95216435 0 0 Z " fill="#DF81A6" transform="translate(375,153)"/>
<path d="M0 0 C0.66 0 1.32 0 2 0 C2.66 4.29 3.32 8.58 4 13 C2 12 2 12 1.1484375 9.49609375 C0.89320313 8.48675781 0.63796875 7.47742188 0.375 6.4375 C0.11460937 5.42558594 -0.14578125 4.41367188 -0.4140625 3.37109375 C-0.60742188 2.58863281 -0.80078125 1.80617188 -1 1 C-0.67 0.67 -0.34 0.34 0 0 Z " fill="#E8A3C3" transform="translate(260,117)"/>
<path d="M0 0 C2 3 2 3 4 6 C6.56282742 6.72965366 6.56282742 6.72965366 9 7 C9 7.33 9 7.66 9 8 C6.36 8 3.72 8 1 8 C0.67 5.36 0.34 2.72 0 0 Z " fill="#EC96B8" transform="translate(324,92)"/>
<path d="M0 0 C3.96 0.33 7.92 0.66 12 1 C12 1.33 12 1.66 12 2 C10.56589632 2.24954005 9.12739928 2.47392642 7.6875 2.6875 C6.88699219 2.81511719 6.08648437 2.94273437 5.26171875 3.07421875 C3 3 3 3 0 0 Z " fill="#FBE4EA" transform="translate(253,257)"/>
<path d="M0 0 C0.33 0 0.66 0 1 0 C2.20577428 4.94367454 1.6290678 8.20862412 0 13 C-0.33 13 -0.66 13 -1 13 C-1.0272415 11.58344207 -1.04650467 10.16672955 -1.0625 8.75 C-1.07410156 7.96109375 -1.08570313 7.1721875 -1.09765625 6.359375 C-1.00385306 4.09308998 -0.63241063 2.1711105 0 0 Z " fill="#FADBEF" transform="translate(147,168)"/>
<path d="M0 0 C2.97 0.495 2.97 0.495 6 1 C6 2.32 6 3.64 6 5 C2.83884224 3.63016497 2.0072908 3.0109362 0 0 Z " fill="#DD89AB" transform="translate(336,158)"/>
<path d="M0 0 C2 1 2 1 2 1 Z M-1 1 C-0.01 1.33 0.98 1.66 2 2 C1.67 2.99 1.34 3.98 1 5 C0.01 5 -0.98 5 -2 5 C-2.33 4.01 -2.66 3.02 -3 2 C-2.34 1.67 -1.68 1.34 -1 1 Z " fill="#DE759E" transform="translate(297,100)"/>
</svg>
