<?xml version="1.0" encoding="UTF-8"?>
<svg version="1.1" xmlns="http://www.w3.org/2000/svg" width="790" height="817">
<path d="M0 0 C2.64834358 0.00543648 5.29667823 0.00780651 7.9450264 0.00987244 C33.45101072 0.04086995 58.84060913 0.40806939 84.22954178 3.08677673 C86.46118973 3.32203371 88.69367512 3.54758245 90.92644119 3.7719574 C166.55329494 11.4791756 166.55329494 11.4791756 195.42155838 32.31785583 C196.07640213 32.77676208 196.73124588 33.23566833 197.40593338 33.70848083 C216.51185476 48.4183495 217.01936746 78.96919473 220.61931229 100.95310974 C221.18865505 104.42337506 221.77380314 107.89070068 222.3678627 111.35681534 C222.69301989 113.28329874 222.99989967 115.21283924 223.30620193 117.14241028 C225.34778108 129.28969542 225.34778108 129.28969542 232.43608475 138.954422 C237.59259604 142.17078204 243.41164629 143.5454632 249.19890213 145.22410583 C256.3630232 147.65556511 262.42835707 151.63115435 267.42155838 157.31785583 C267.90108963 157.81801208 268.38062088 158.31816833 268.87468338 158.83348083 C280.61790346 171.52564799 283.75323136 190.24746394 286.7894783 206.72874451 C287.23748027 209.14884078 287.70654713 211.56422596 288.17741776 213.97996521 C291.55788462 231.72089574 291.56574259 249.50077904 281.51530838 265.31785583 C270.5958526 280.69737102 256.64973213 287.16527307 238.69890213 291.36082458 C234.22471845 292.66735021 231.38991829 293.76743517 228.8710289 297.80037594 C227.01197804 302.31179851 226.49904279 306.53210398 225.97612381 311.35925293 C225.85521991 312.39767304 225.73431602 313.43609316 225.60974836 314.50598055 C225.19748278 318.10833209 224.80702267 321.71253989 224.42155838 325.31785583 C224.3512841 325.9713779 224.28100981 326.62489997 224.208606 327.29822573 C223.03834797 338.18818264 221.92527109 349.08383308 220.82016206 359.98056304 C220.35183546 364.59216867 219.88027803 369.20344412 219.40909195 373.8147583 C218.59560444 381.77974942 217.78393913 389.74492443 216.973423 397.71021843 C215.69070239 410.31484398 214.4027425 422.91893169 213.11406326 435.52294922 C212.67175982 439.84960865 212.22949911 444.17627245 211.78725815 448.50293827 C211.67679302 449.58367296 211.56632789 450.66440766 211.45251533 451.77789189 C210.19982277 464.03451933 208.94842295 476.29127868 207.69743729 488.54808044 C207.58328675 489.66648274 207.46913621 490.78488504 207.35152656 491.93717832 C205.49901086 510.08842963 203.64932752 528.23996888 201.80019933 546.39156555 C199.89604066 565.08214763 197.9870633 583.77223373 196.07409811 602.46191651 C194.897188 613.96217759 193.72425186 625.46282998 192.55652511 636.96402723 C191.7561886 644.84350689 190.95130223 652.72251351 190.14290106 660.60116982 C189.67757017 665.13769899 189.21423366 669.67440764 188.75644112 674.21170425 C188.33621525 678.37627132 187.91008812 682.5401934 187.47953743 686.70370532 C187.32598377 688.19834774 187.17448142 689.69320289 187.02540976 691.18829899 C186.24923034 698.96066692 185.28006435 706.66422971 183.94445419 714.36061192 C183.82681629 715.04472432 183.70917839 715.72883673 183.58797571 716.43367982 C180.37107577 734.22504083 172.58753413 750.00876827 160.42155838 763.31785583 C159.67390213 764.15832458 158.92624588 764.99879333 158.15593338 765.86473083 C134.10554659 791.50785847 97.47176515 799.19957149 63.64238358 800.53779602 C52.42258949 800.8803329 41.19705513 800.79446103 29.97398758 800.70909119 C26.42118866 800.68754778 22.86854385 800.68824544 19.31569099 800.68910027 C1.28788407 800.68807595 -16.69978043 800.37649158 -34.70344162 799.41160583 C-35.45013233 799.37247448 -36.19682304 799.33334312 -36.96614075 799.29302597 C-73.89492675 797.30689151 -111.10944388 791.69464101 -137.89484787 763.91551208 C-150.78222873 748.75833812 -155.57581212 731.03257451 -157.60024643 711.60290527 C-157.7645106 710.11276352 -157.92977008 708.62273119 -158.09595186 707.13280207 C-158.52219873 703.28174573 -158.93343255 699.42925699 -159.33959487 695.57603613 C-159.64316348 692.705942 -159.9535996 689.83661197 -160.26404717 686.96725529 C-161.19568196 678.34634873 -162.09431241 669.72211926 -162.9870497 661.09711158 C-163.4099819 657.01620422 -163.83564645 652.9355816 -164.26093674 648.85491943 C-164.99298335 641.82752939 -165.72340852 634.79997245 -166.45265388 627.77229118 C-167.50796998 617.60237178 -168.56593982 607.43272972 -169.62451098 597.26314867 C-171.34439162 580.73981884 -173.06230171 564.21628479 -174.77888107 547.69261169 C-176.44137759 531.68958679 -178.10466739 515.68664469 -179.76911545 499.68382263 C-179.872044 498.69421334 -179.97497254 497.70460406 -180.08102014 496.68500661 C-181.10507261 486.83936985 -182.1292442 476.99374549 -183.15342906 467.1481225 C-183.5517821 463.31868967 -183.9501289 459.48925619 -184.34847149 455.65982228 C-184.5450225 453.77029649 -184.74157544 451.8807709 -184.93813036 449.99124552 C-186.18514229 438.00329637 -187.43153947 426.01528353 -188.67723691 414.02719772 C-189.30432064 407.99240619 -189.93160256 401.95763528 -190.55893572 395.92286967 C-191.05402895 391.16003305 -191.54885327 386.3971686 -192.04346393 381.63428184 C-192.34421507 378.7388201 -192.6452298 375.84338581 -192.94631884 372.94795919 C-193.14841349 371.00374304 -193.35018814 369.05949364 -193.55194968 367.1152429 C-194.06989653 362.13647537 -194.59171894 357.15870578 -195.15242863 352.18455601 C-197.02763469 335.1642779 -197.02763469 335.1642779 -191.57844162 328.31785583 C-185.97476046 322.47837622 -180.24899705 319.21023517 -172.01594162 318.94285583 C-167.48534368 319.07920762 -164.41670513 319.75901349 -160.57844162 322.31785583 C-159.31000412 323.09129333 -159.31000412 323.09129333 -158.01594162 323.88035583 C-151.93191093 329.96438652 -150.2440876 336.91172294 -149.14338303 345.19822693 C-149.01893625 346.10428366 -148.89448948 347.01034039 -148.76627159 347.94385338 C-147.03357023 360.9325516 -145.73871746 373.97453763 -144.39976025 387.00840855 C-143.9937531 390.95152976 -143.58294938 394.89415181 -143.17274094 398.83683777 C-142.46472717 405.64769409 -141.75954923 412.45883899 -141.05628586 419.27018738 C-140.03708039 429.14079476 -139.01254978 439.01084418 -137.98663878 448.88075662 C-136.31844728 464.93046027 -134.65325105 480.98047301 -132.99055099 497.03074646 C-132.89135353 497.98830282 -132.79215606 498.94585919 -132.68995261 499.93243241 C-131.88532444 507.69975536 -131.08084276 515.46709347 -130.27636719 523.23443222 C-129.57309072 530.02461698 -128.86975571 536.81479568 -128.16633224 543.60496521 C-128.06725878 544.56133511 -127.96818531 545.51770501 -127.86610961 546.50305581 C-126.20889111 562.4994469 -124.54847513 578.49550456 -122.88581657 594.4913311 C-121.86369452 604.32627993 -120.84440261 614.16151401 -119.82888556 623.99714708 C-119.13214449 630.74352886 -118.43249114 637.48960464 -117.73063326 644.23545599 C-117.32716493 648.11435344 -116.92497525 651.99337143 -116.5264473 655.87277985 C-114.0032318 703.4761804 -114.0032318 703.4761804 -90.10187912 742.36863708 C-69.00279332 757.80061306 -41.69439577 757.47227527 -16.69562912 757.52098083 C-15.20847082 757.5252219 -15.20847082 757.5252219 -13.69126892 757.52954865 C-8.43409341 757.54446358 -3.17694475 757.55373901 2.08024979 757.55809021 C6.36614454 757.56245681 10.65183594 757.57628875 14.93767166 757.59910583 C73.49997643 760.04809155 73.49997643 760.04809155 125.33171463 737.61082458 C132.63516274 729.98634578 136.33804581 720.62583751 137.95557022 710.33724976 C138.08041284 709.56218863 138.20525547 708.78712751 138.3338812 707.98857969 C139.75247797 698.76326461 140.54478901 689.48032904 141.34268534 680.18467891 C141.85542787 674.23723259 142.39660451 668.29236779 142.93751907 662.34742737 C143.05395596 661.06593408 143.17039285 659.78444079 143.29035813 658.46411437 C144.74376755 642.60603081 146.37950997 626.76678347 148.01848221 610.92698669 C148.18167815 609.34799372 148.34486331 607.76899964 148.50803792 606.19000447 C149.35690658 597.97905594 150.20852942 589.76839518 151.06167412 581.55788994 C152.15407338 571.04466601 153.24075401 560.53085421 154.32675552 550.01696777 C154.70191783 546.38562678 155.07712521 542.75429045 155.45235348 539.12295628 C155.54596261 538.21703678 155.63957175 537.31111728 155.73601753 536.37774567 C156.78891081 526.1891343 157.84316646 516.00066402 158.89787674 505.8122406 C158.99373952 504.88620038 159.0896023 503.96016015 159.18837001 503.0060581 C160.75399174 487.88314061 162.32263092 472.760537 163.89181439 457.63798874 C165.51497818 441.99395244 167.13302772 426.34939231 168.74682254 410.70438677 C169.73671318 401.10978337 170.73080447 391.51563423 171.73047539 381.92204482 C172.41235907 375.37487422 173.08942036 368.82721623 173.76272748 362.27915811 C174.15025929 358.51183996 174.53991603 354.74477462 174.93546104 350.97828865 C175.36499831 346.88764686 175.78414241 342.79600396 176.20239639 338.70419312 C176.32738709 337.52990012 176.45237778 336.35560712 176.58115608 335.14572948 C178.56539917 321.3760326 178.56539917 321.3760326 175.79655838 308.19285583 C173.01466266 304.82529786 171.61427672 303.59064533 167.42155838 302.31785583 C159.08626006 301.79861867 150.79029391 302.63021556 142.50554276 303.48561096 C138.95967655 303.84913719 135.41129377 304.18638911 131.86296463 304.52488708 C130.78343018 304.62811531 130.78343018 304.62811531 129.68208694 304.73342896 C117.94404075 305.8471384 106.19362727 306.66100361 94.42155838 307.31785583 C93.62695206 307.36275146 92.83234573 307.40764709 92.01366043 307.4539032 C45.33764163 310.0625497 -1.87398954 310.79279941 -48.57844162 308.31785583 C-49.3679924 308.27638428 -50.15754318 308.23491272 -50.97101974 308.19218445 C-96.07008969 305.78622186 -140.91129469 300.94882465 -185.57844162 294.31785583 C-186.87116989 294.12709473 -186.87116989 294.12709473 -188.19001389 293.93247986 C-193.21515992 293.18849414 -198.2360972 292.42222982 -203.2528801 291.62373352 C-204.77096222 291.38326361 -206.28974456 291.14716189 -207.80927658 290.91603088 C-225.70441175 288.17266094 -241.0046869 281.71992361 -252.57844162 267.31785583 C-262.65242965 251.9002011 -265.19985766 235.65146514 -261.89094162 217.75535583 C-261.7116008 216.7666449 -261.53225998 215.77793396 -261.34748459 214.75926208 C-260.76888849 211.60995408 -260.17444984 208.46391058 -259.57844162 205.31785583 C-259.38588791 204.27387634 -259.1933342 203.22989685 -258.99494553 202.15428162 C-252.9612316 169.68715428 -252.9612316 169.68715428 -241.57844162 157.31785583 C-241.08086349 156.71844177 -240.58328537 156.11902771 -240.07062912 155.50144958 C-231.43172007 145.79895626 -218.2996165 140.03934928 -205.51594162 139.09056091 C-194.67944007 138.87969438 -184.36237921 140.5930948 -173.70945358 142.45155334 C-135.58266748 149.06330534 -97.17484412 152.79872099 -58.57844162 155.31785583 C-57.55702072 155.38456482 -56.53559982 155.4512738 -55.48322678 155.52000427 C-41.80501975 156.36659537 -28.08923946 156.55528405 -14.39094162 156.88035583 C-12.98722809 156.91398224 -12.98722809 156.91398224 -11.55515671 156.94828796 C40.62637137 158.1743378 92.63015317 156.15110873 144.54655838 150.75535583 C145.56602554 150.64953186 146.58549271 150.54370789 147.63585281 150.43467712 C153.1421545 149.85716266 158.64346885 149.24926946 164.14043045 148.58854675 C166.20482602 148.34357446 168.27159725 148.11883021 170.33855057 147.89646912 C171.41524002 147.7583783 172.49192947 147.62028748 173.60124588 147.47801208 C174.4828035 147.37238953 175.36436111 147.26676697 176.2726326 147.15794373 C178.63207113 146.43989132 178.63207113 146.43989132 180.25529861 144.05223083 C181.57606448 140.95560582 181.58211305 139.66223929 180.90202713 136.40769958 C180.61090042 134.94868225 180.61090042 134.94868225 180.31389236 133.46018982 C180.08129715 132.4025946 179.84870193 131.34499939 179.60905838 130.25535583 C179.26306595 128.58678528 179.26306595 128.58678528 178.91008377 126.88450623 C178.24903747 123.7307868 177.56838074 120.58197592 176.88029861 117.43406677 C176.39553329 115.1977997 175.92190812 112.95939388 175.45085526 110.72019958 C174.60378379 106.69369723 173.7443877 102.67002111 172.87532425 98.64820862 C172.53401589 97.06627049 172.1950865 95.48381701 171.85866165 93.90083313 C168.9888003 78.01251615 168.9888003 78.01251615 159.55754471 65.57615662 C150.32649783 60.13818478 138.63667149 58.71920193 128.23405838 56.75535583 C127.43667252 56.60344788 126.63928665 56.45153992 125.81773758 56.29502869 C112.05952076 53.68607227 98.38063974 51.53033729 84.42155838 50.31785583 C82.97214069 50.18299014 81.52276128 50.04771272 80.07341385 49.91209412 C28.55640998 45.19126467 -25.12034491 44.5558755 -76.57844162 50.31785583 C-77.66336899 50.4373761 -77.66336899 50.4373761 -78.77021408 50.55931091 C-92.88292564 52.12331839 -106.96312411 53.92173283 -120.87531662 56.80223083 C-123.57844162 57.31785583 -123.57844162 57.31785583 -126.57844162 57.31785583 C-126.24844162 58.96785583 -125.91844162 60.61785583 -125.57844162 62.31785583 C-104.07416035 67.12892277 -82.50281955 69.45137756 -60.57844162 71.31785583 C-59.87326401 71.37950928 -59.1680864 71.44116272 -58.44153976 71.50468445 C-8.47713668 75.85849143 42.90223691 74.8968341 92.6722908 68.6391449 C100.10759903 67.72271821 107.50223342 67.09251358 114.99577713 66.95066833 C115.72094025 66.92423248 116.44610336 66.89779663 117.19324112 66.87055969 C123.53087285 66.8428359 128.86067746 68.83113169 133.44499588 73.28269958 C138.29444812 80.36065733 140.43495961 85.6000068 139.42155838 94.31785583 C137.58420072 101.46959611 133.49620697 106.23415352 127.42155838 110.31785583 C123.64009298 112.05850413 120.17291569 112.77219871 116.05046463 113.28269958 C114.13463577 113.52089417 114.13463577 113.52089417 112.1801033 113.76390076 C110.78152806 113.92862501 109.38284261 114.09241577 107.98405838 114.25535583 C107.26714828 114.34056488 106.55023819 114.42577393 105.81160355 114.51356506 C78.47412596 117.74531749 50.95027217 119.90305854 23.42155838 120.31785583 C22.70024734 120.32881287 21.97893631 120.3397699 21.23576736 120.35105896 C-148.00368062 122.78951271 -148.00368062 122.78951271 -191.20344162 85.88035583 C-198.94936381 78.29091692 -203.01477825 71.30728165 -203.89094162 60.44285583 C-203.54112175 49.9276822 -198.625684 40.94721699 -191.14094162 33.75535583 C-163.56647871 11.31223095 -120.42309307 7.72502607 -86.45344162 4.19285583 C-85.68936996 4.11235992 -84.92529831 4.03186401 -84.13807297 3.94892883 C-78.29013646 3.33999441 -72.43725662 2.81055857 -66.57844162 2.31785583 C-65.00919434 2.18384872 -65.00919434 2.18384872 -63.40824509 2.0471344 C-42.26079081 0.29483212 -21.20772871 -0.04529348 0 0 Z M-208.26594162 189.38035583 C-216.26186131 199.5373349 -217.81741733 212.75998398 -218.01594162 225.31785583 C-218.03817795 226.11884705 -218.06041428 226.91983826 -218.08332443 227.74510193 C-218.06320013 233.0635067 -217.19559315 236.17709002 -213.57844162 240.31785583 C-209.4294366 243.46106388 -206.14288398 244.95065351 -201.02766037 245.82566833 C-200.3539389 245.9415329 -199.68021744 246.05739746 -198.98608017 246.17677307 C-187.52116531 248.07506085 -175.97227116 249.48103334 -164.44435501 250.93402863 C-162.3686321 251.19566789 -160.29308559 251.45867781 -158.21754074 251.72172546 C-120.55171341 256.48261193 -82.73146676 260.51709283 -44.79001999 262.21784973 C-43.18279413 262.29052742 -41.57569135 262.3659431 -39.96866989 262.44300842 C-22.93962227 263.25284112 -5.93817495 263.52017093 11.10905838 263.50535583 C12.41036697 263.50475159 13.71167557 263.50414734 15.05241776 263.50352478 C39.55162305 263.4798132 63.96887133 262.83785437 88.42155838 261.31785583 C89.40998734 261.25704834 90.39841629 261.19624084 91.41679764 261.1335907 C118.39628222 259.45430931 145.26163985 256.93976083 172.10905838 253.81785583 C173.34939835 253.67441742 174.58973831 253.530979 175.86766434 253.38319397 C188.64704517 251.89319889 201.40583822 250.26695111 214.12858963 248.34910583 C215.64062218 248.13357056 215.64062218 248.13357056 217.18320084 247.91368103 C226.02130508 246.52568452 234.13155514 243.90738304 240.42155838 237.31785583 C243.0274564 231.56006212 243.91489163 226.85107923 243.79655838 220.56785583 C243.78640701 219.78289734 243.77625565 218.99793884 243.76579666 218.18919373 C243.49249787 207.84938948 241.67251812 198.13039332 234.42155838 190.31785583 C228.47029886 185.40507113 221.77128544 185.95630145 214.42155838 186.31785583 C210.15979814 186.77097317 205.94873167 187.43958982 201.72233963 188.14598083 C200.54127136 188.33508026 199.36020309 188.52417969 198.14334488 188.7190094 C195.63356617 189.12108835 193.12438309 189.5269008 190.61577225 189.936203 C184.06659942 191.00191874 177.51172779 192.03096092 170.95671463 193.06004333 C169.03591583 193.36206161 169.03591583 193.36206161 167.07631302 193.67018127 C140.77997392 197.78349998 114.38733011 200.38500104 87.83726883 202.15641785 C86.25012772 202.2624839 84.66308686 202.3700628 83.07616043 202.47929382 C35.73727573 205.73360066 -12.24795038 205.66625728 -59.57844162 202.31785583 C-60.52211594 202.25233521 -61.46579025 202.18681458 -62.43806076 202.11930847 C-98.78778817 199.58499157 -135.08448857 196.54925288 -170.71467209 188.64085388 C-190.18114688 183.90538609 -190.18114688 183.90538609 -208.26594162 189.38035583 Z " fill="#FEFEFE" transform="translate(381.57844161987305,7.6821441650390625)"/>
<path d="M0 0 C0.33 0.33 0.66 0.66 1 1 C0.87781507 16.20248235 -1.17939833 31.47407096 -2.60837817 46.59733474 C-2.97181594 50.45054593 -3.3318258 54.30407779 -3.69235229 58.15756226 C-4.47841082 66.55203477 -5.26892493 74.94608392 -6.06047201 83.34004045 C-6.55545052 88.58908353 -7.04955833 93.83820835 -7.54352188 99.08734703 C-8.91393345 113.64826542 -10.28549382 128.20907459 -11.66123772 142.76949024 C-11.79284551 144.16241569 -11.79284551 144.16241569 -11.92711205 145.58348105 C-12.01504601 146.51415635 -12.10297997 147.44483165 -12.1935786 148.40370923 C-12.37173016 150.28924021 -12.54987973 152.17477138 -12.72802734 154.06030273 C-12.81639335 154.99556637 -12.90475936 155.93083 -12.99580313 156.89443495 C-14.42952333 172.07125837 -15.85494687 187.24884878 -17.27683936 202.42678443 C-18.74008158 218.04481038 -20.21027966 233.66216889 -21.6874162 249.27888697 C-22.51531662 258.03341897 -23.34025827 266.78820696 -24.15749741 275.54374123 C-24.85271731 282.99167421 -25.55430697 290.43897303 -26.2641028 297.88553164 C-26.6256004 301.68004233 -26.98416099 305.47476773 -27.33457947 309.27031898 C-27.71533059 313.39347601 -28.11053761 317.51512385 -28.50704956 321.63679504 C-28.61435737 322.82367552 -28.72166517 324.010556 -28.83222473 325.23340255 C-30.4820724 342.01815103 -34.98078893 356.53702115 -48 368 C-60.8769929 377.3722456 -74.19744049 379.50291434 -89.75 380.1875 C-90.56924957 380.22669556 -91.38849915 380.26589111 -92.23257446 380.30627441 C-123.99499194 381.79678355 -155.99376299 381.84883846 -187.75 380.1875 C-188.47013275 380.15265503 -189.1902655 380.11781006 -189.93222046 380.08190918 C-207.55586721 379.18868992 -221.60834305 375.03727269 -234 362 C-242.612655 351.95464713 -244.96764171 341.61956528 -246.43318176 328.82707214 C-246.56137985 327.73161707 -246.68957794 326.636162 -246.82166082 325.50751132 C-248.30696262 312.63018973 -249.5675366 299.73106518 -250.8190918 286.8293457 C-251.08500613 284.10631155 -251.35174835 281.38335863 -251.61843872 278.66040039 C-252.26005943 272.1040777 -252.89873491 265.54747154 -253.53626665 258.99075011 C-254.05437233 253.66283158 -254.57358221 248.33502168 -255.09354591 243.00728416 C-255.1680742 242.24362869 -255.24260248 241.47997321 -255.3193892 240.69317665 C-255.47086127 239.14116017 -255.62233568 237.58914391 -255.77381239 236.03712787 C-257.18571338 221.56959194 -258.59421054 207.10172623 -260.00150863 192.63374194 C-261.20799754 180.23106584 -262.41750129 167.82868668 -263.62915039 155.42651367 C-265.04105789 140.97452836 -266.45108127 126.52236125 -267.85812122 112.06990117 C-268.00804537 110.53000596 -268.15797208 108.990111 -268.30790138 107.45021629 C-268.3816474 106.69277671 -268.45539341 105.93533713 -268.53137415 105.15494484 C-269.05030878 99.82636435 -269.57059264 94.4979166 -270.09140587 89.16951942 C-270.72489885 82.68794651 -271.35633391 76.20617708 -271.98512395 69.72414616 C-272.30570781 66.41987366 -272.62752734 63.11573413 -272.95123863 59.81176567 C-273.30188953 56.23119452 -273.64898355 52.65029598 -273.99516296 49.06929016 C-274.14967683 47.50439621 -274.14967683 47.50439621 -274.30731219 45.90788823 C-274.75375714 41.25259623 -275.12743816 36.68372649 -275 32 C-274.26475098 32.14622803 -273.52950195 32.29245605 -272.77197266 32.44311523 C-269.39058686 33.11275181 -266.00782369 33.77516721 -262.625 34.4375 C-261.46871094 34.66759766 -260.31242187 34.89769531 -259.12109375 35.13476562 C-235.11998534 39.81294777 -207.945888 40.42727579 -184 35 C-183.12617676 34.80664062 -182.25235352 34.61328125 -181.35205078 34.4140625 C-159.92151933 29.54570689 -139.62345905 21.68226737 -119.47192383 13.0300293 C-79.94825215 -3.92490583 -42.33319127 -14.32617144 0 0 Z " fill="#FEFEFE" transform="translate(533,364)"/>
</svg>
